<svg xmlns="http://www.w3.org/2000/svg" viewBox="0 0 77.81 90"><g id="Layer_2" data-name="Layer 2"><g id="Layer_1-2" data-name="Layer 1"><path  stroke="currentColor" stroke-width="var(--icon-stroke-width)" d="M38.9,42.82C17.45,42.82,0,58.54,0,77.87,0,86.82,21,90,38.9,90s38.91-3.18,38.91-12.13C77.81,58.54,60.36,42.82,38.9,42.82Zm0,43.58C17.1,86.4,3.6,82,3.6,77.87c0-17.34,15.84-31.45,35.3-31.45S74.21,60.53,74.21,77.87c0,4.1-13.5,8.53-35.31,8.53ZM58.09,19.18A19.19,19.19,0,1,0,38.9,38.37h0A19.22,19.22,0,0,0,58.09,19.18Zm-34.77,0A15.59,15.59,0,1,1,38.9,34.77,15.59,15.59,0,0,1,23.32,19.18Z"/></g></g></svg>
