<svg xmlns="http://www.w3.org/2000/svg" viewBox="0 0 25.99 26"><g id="Layer_2" data-name="Layer 2"><g id="Layer_1-2" data-name="Layer 1"><path d="M20.48,26h-15A5.48,5.48,0,0,1,0,20.52a5.55,5.55,0,0,1,.17-1.35l3-12.41a1,1,0,0,1,1-.76H21a1,1,0,0,1,1,.7l3.78,12.16a5.52,5.52,0,0,1-.83,4.91A5.39,5.39,0,0,1,20.48,26ZM5,8,2.07,19.65A3.5,3.5,0,0,0,4.61,23.9a3.85,3.85,0,0,0,.83.1h15a3.46,3.46,0,0,0,2.79-1.42,3.5,3.5,0,0,0,.53-3.13L20.24,8Z"/><path d="M17,14a1,1,0,0,1-1-1V5a3,3,0,0,0-6,0v8a1,1,0,1,1-2,0V5A5,5,0,0,1,18,5v8A1,1,0,0,1,17,14Z"/></g></g></svg>